# Blender v2.81 (sub 16) OBJ File: ''
# www.blender.org
mtllib crate2.mtl
o Box001_Mesh.002
v -4.996341 -5.000000 4.996341
v 4.996341 -5.000000 4.996341
v -4.996341 -5.000000 -4.996341
v 4.996341 -5.000000 -4.996341
v -4.996341 4.992682 4.996341
v 4.996341 4.992682 4.996341
v -4.996341 4.992682 -4.996341
v 4.996341 4.992682 -4.996341
v -4.996341 -5.000000 3.464130
v -4.996341 -5.000000 -3.464130
v 4.996341 -5.000000 -3.464130
v 4.996341 -5.000000 3.464130
v 4.996341 4.992682 3.464130
v 4.996341 4.992682 -3.464130
v -4.996341 4.992682 -3.464130
v -4.996341 4.992682 3.464130
v -3.464130 -5.000000 -4.996341
v 3.464130 -5.000000 -4.996341
v 3.464130 -5.000000 4.996341
v -3.464130 -5.000000 4.996341
v -3.464130 4.992682 4.996341
v 3.464130 4.992682 4.996341
v 3.464130 4.992682 -4.996341
v -3.464130 4.992682 -4.996341
v 3.464130 -5.000000 -3.464130
v -3.464130 -5.000000 3.464130
v -3.464130 4.992682 -3.464130
v 3.464130 4.992682 3.464130
v 4.996341 -3.467789 4.996341
v 4.996341 3.460471 4.996341
v -4.996341 3.460471 4.996341
v -4.996341 -3.467788 4.996341
v 4.996341 -3.467789 -4.996341
v 4.996341 3.460471 -4.996341
v -4.996341 -3.467789 -4.996341
v -4.996341 3.460471 -4.996341
v -4.996341 3.460471 3.464130
v -4.996341 -3.467788 -3.464130
v 3.464130 -3.467789 4.996341
v -3.464130 3.460471 4.996341
v -3.464130 -3.467789 -4.996341
v 3.464130 3.460471 -4.996341
v -4.996341 3.460471 -1.931917
v -4.996341 -1.935576 3.464130
v -4.996341 1.928260 -3.464130
v -4.996341 -3.467789 1.931918
v -3.464130 -1.935577 4.996341
v 1.931919 3.460471 4.996342
v 3.464130 1.928260 4.996341
v -1.931918 -3.467788 4.996341
v 1.931919 4.992682 -3.464130
v -3.464130 4.992682 1.931918
v 3.464130 4.992682 -1.931919
v -1.931919 4.992682 3.464130
v -1.931919 3.460471 -4.996341
v 3.464130 -1.935578 -4.996341
v 1.931918 -3.467788 -4.996341
v -3.464130 1.928260 -4.996341
v -1.931919 -5.000000 -3.464130
v 3.464130 -5.000000 1.931919
v 1.931918 -5.000000 3.464130
v -3.464130 -5.000000 -1.931919
v 4.996341 3.460471 -3.464130
v 4.996341 -3.467789 3.464130
v 4.996341 3.460471 1.931918
v 4.996341 -1.935576 -3.464130
v 4.996341 -3.467789 -1.931919
v 4.996341 1.928260 3.464130
v 3.464130 4.520862 3.464130
v 3.464130 4.520862 -1.931919
v -1.931919 4.520862 3.464130
v -3.464130 3.460471 4.524521
v -3.464130 -1.935577 4.524521
v 1.931919 3.460471 4.524521
v -4.524521 3.460471 3.464130
v -4.524521 3.460471 -1.931917
v -4.524521 -1.935576 3.464130
v -4.524521 -3.467788 -3.464130
v -4.524521 -3.467789 1.931918
v -4.524521 1.928260 -3.464130
v 3.464130 -3.467789 4.524521
v 3.464130 1.928260 4.524521
v -1.931918 -3.467788 4.524521
v -3.464130 4.520862 -3.464130
v -3.464130 4.520862 1.931918
v 1.931919 4.520862 -3.464130
v 3.464130 3.460471 -4.524521
v 3.464130 -1.935578 -4.524521
v -1.931919 3.460471 -4.524521
v -3.464130 -3.467789 -4.524521
v -3.464130 1.928260 -4.524521
v 1.931918 -3.467788 -4.524521
v 3.464130 -4.528180 -3.464130
v 3.464130 -4.528180 1.931919
v -1.931919 -4.528180 -3.464130
v -3.464130 -4.528180 3.464130
v -3.464130 -4.528180 -1.931919
v 1.931918 -4.528180 3.464130
v 4.524521 3.460471 -3.464130
v 4.524520 3.460471 1.931918
v 4.524521 -1.935576 -3.464130
v 4.524521 -3.467789 3.464130
v 4.524521 -3.467789 -1.931919
v 4.524520 1.928260 3.464130
vt 0.846667 1.000000
vt 0.306667 1.000000
vt 0.306667 0.952783
vt 0.846667 0.952783
vt 0.846667 1.000000
vt 0.306667 1.000000
vt 0.306667 0.952783
vt 0.846667 0.952783
vt 0.693333 1.000000
vt 0.153334 1.000000
vt 0.153334 0.952783
vt 0.693333 0.952783
vt 0.000000 0.846667
vt 0.000000 0.306667
vt 0.047217 0.306667
vt 0.047217 0.846667
vt 0.153333 0.000000
vt 0.693333 0.000000
vt 0.693333 0.047217
vt 0.153333 0.047217
vt 0.306667 0.000000
vt 0.846667 0.000000
vt 0.846667 0.047217
vt 0.306667 0.047217
vt 1.000000 0.153334
vt 1.000000 0.693333
vt 0.952783 0.693333
vt 0.952783 0.153334
vt 0.000000 0.693333
vt 0.000000 0.153334
vt 0.047217 0.153334
vt 0.047217 0.693333
vt 1.000000 0.306667
vt 1.000000 0.846667
vt 0.952783 0.846667
vt 0.952783 0.306667
vt 0.000000 0.846667
vt 0.000000 0.306667
vt 0.047217 0.306667
vt 0.047217 0.846667
vt 1.000000 0.153333
vt 1.000000 0.693333
vt 0.952783 0.693333
vt 0.952783 0.153333
vt 0.000000 0.693333
vt 0.000000 0.153333
vt 0.047217 0.153333
vt 0.047217 0.693333
vt 1.000000 0.153333
vt 1.000000 0.693333
vt 0.952783 0.693333
vt 0.952783 0.153333
vt 0.153334 0.000000
vt 0.693333 0.000000
vt 0.693333 0.047217
vt 0.153334 0.047217
vt 0.306667 0.000000
vt 0.846666 0.000000
vt 0.846666 0.047217
vt 0.306667 0.047217
vt 0.846667 1.000000
vt 0.306667 1.000000
vt 0.306667 0.952783
vt 0.846667 0.952783
vt 0.846667 1.000000
vt 0.306667 1.000000
vt 0.306667 0.952783
vt 0.846667 0.952783
vt 0.693333 1.000000
vt 0.153334 1.000000
vt 0.153334 0.952783
vt 0.693333 0.952783
vt 0.000000 0.846667
vt 0.000000 0.306667
vt 0.047217 0.306667
vt 0.047217 0.846667
vt 0.846667 1.000000
vt 0.306667 1.000000
vt 0.306667 0.952783
vt 0.846667 0.952783
vt 0.693333 1.000000
vt 0.153333 1.000000
vt 0.153333 0.952783
vt 0.693333 0.952783
vt 1.000000 0.153333
vt 1.000000 0.693333
vt 0.952783 0.693333
vt 0.952783 0.153333
vt 0.846666 1.000000
vt 0.306667 1.000000
vt 0.306667 0.952783
vt 0.846666 0.952783
vt 0.693333 1.000000
vt 0.153334 1.000000
vt 0.153334 0.952783
vt 0.693333 0.952783
vt 0.153333 0.000000
vt 0.693333 0.000000
vt 0.693333 0.047217
vt 0.153333 0.047217
vt 0.306667 0.000000
vt 0.846667 0.000000
vt 0.846667 0.047217
vt 0.306667 0.047217
vt 0.306667 0.000000
vt 0.846667 0.000000
vt 0.846667 0.047217
vt 0.306667 0.047217
vt 0.153334 0.000000
vt 0.693333 0.000000
vt 0.693333 0.047217
vt 0.153334 0.047217
vt 0.306667 0.000000
vt 0.846667 0.000000
vt 0.846667 0.047217
vt 0.306667 0.047217
vt 0.306667 0.000000
vt 0.846667 0.000000
vt 0.846667 0.047217
vt 0.306667 0.047217
vt 0.000000 0.846666
vt 0.000000 0.306667
vt 0.047217 0.306667
vt 0.047217 0.846666
vt 1.000000 0.306667
vt 1.000000 0.846666
vt 0.952783 0.846666
vt 0.952783 0.306667
vt 1.000000 0.306667
vt 1.000000 0.846667
vt 0.952783 0.846667
vt 0.952783 0.306667
vt 1.000000 0.153333
vt 1.000000 0.693333
vt 0.952783 0.693333
vt 0.952783 0.153333
vt 0.000000 0.693333
vt 0.000000 0.153333
vt 0.047217 0.153333
vt 0.047217 0.693333
vt 0.000000 0.693333
vt 0.000000 0.153333
vt 0.047217 0.153333
vt 0.047217 0.693333
vt 1.000000 0.153333
vt 1.000000 0.000000
vt 0.846666 0.000000
vt 0.693333 0.153333
vt 0.693333 0.153334
vt 0.153334 0.153333
vt 0.153333 0.693333
vt 0.306667 0.846667
vt 0.846666 0.846667
vt 0.846666 0.306667
vt 0.846666 1.000000
vt 0.153333 1.000000
vt 0.306667 0.846667
vt 0.846666 0.846667
vt 0.153333 0.693333
vt 0.153333 1.000000
vt 0.306667 0.846667
vt 0.693333 0.153333
vt 0.846666 0.306667
vt 0.846666 0.846667
vt 0.306667 0.846667
vt 0.153334 0.000000
vt 0.153334 0.153333
vt 0.693333 0.153334
vt 0.846667 0.000000
vt 1.000000 0.846667
vt 0.846666 0.846667
vt 0.846666 0.306667
vt 1.000000 0.153333
vt 0.000000 0.153333
vt 0.000000 0.846666
vt 0.153333 0.693333
vt 0.000000 0.846667
vt 0.153333 0.693333
vt 0.153333 0.153333
vt 0.000000 0.153333
vt 0.846666 0.306667
vt 0.846666 0.846667
vt 1.000000 1.000000
vt 1.000000 0.846666
vt 0.846667 0.846667
vt 0.846667 1.000000
vt 0.000000 0.000000
vt 0.000000 0.153334
vt 0.153333 0.153334
vt 0.153333 0.000000
vt 1.000000 1.000000
vt 1.000000 0.846667
vt 0.846666 0.846667
vt 0.846666 1.000000
vt 0.000000 0.000000
vt 0.153333 1.000000
vt 0.846666 1.000000
vt 0.306667 0.846667
vt 0.846666 0.000000
vt 0.153333 0.000000
vt 0.693333 0.153333
vt 0.846666 1.000000
vt 0.153333 1.000000
vt 0.306667 0.846667
vt 1.000000 1.000000
vt 0.000000 0.000000
vt 0.153333 0.000000
vt 0.153333 0.153333
vt 0.000000 0.153333
vt 0.000000 0.000000
vt 0.153333 0.000000
vt 0.153333 0.153333
vt 0.846666 1.000000
vt 1.000000 1.000000
vt 1.000000 0.846667
vt 0.846666 0.846667
vt 0.000000 1.000000
vt 0.000000 0.846667
vt 0.153333 0.693333
vt 0.153333 0.693333
vt 0.153333 0.153333
vt 0.693333 0.153333
vt 0.693333 0.153333
vt 0.846666 0.000000
vt 0.693333 0.153333
vt 0.153333 0.153333
vt 0.153333 0.693333
vt 0.306667 0.846667
vt 0.153333 1.000000
vt 0.306667 0.846667
vt 0.846666 0.846667
vt 0.846667 0.306667
vt 0.846667 0.306667
vt 1.000000 0.153334
vt 0.000000 1.000000
vt 0.306667 0.846667
vt 0.846666 0.846667
vt 0.846666 0.306667
vt 1.000000 0.153333
vt 0.846666 0.306667
vt 0.846666 0.000000
vt 0.693333 0.153333
vt 0.153333 0.153333
vt 0.153333 0.693333
vt 0.306667 0.846667
vt 0.153334 1.000000
vt 0.306667 0.846667
vt 0.846667 0.846667
vt 0.846667 0.306667
vt 0.846667 0.306667
vt 0.693333 0.153333
vt 0.153333 0.153334
vt 0.153333 0.693333
vt 0.153333 0.693333
vt 0.000000 0.846667
vt 1.000000 0.000000
vt 1.000000 0.000000
vt 0.000000 1.000000
vt 0.153333 0.000000
vt 0.153333 0.153333
vt 1.000000 0.000000
vt 0.000000 1.000000
vt 0.846666 0.000000
vt 0.693333 0.153333
vt 0.846666 0.306667
vt 0.846666 0.306667
vt 0.846666 0.846667
vt 0.306667 0.846667
vt 0.153333 0.693333
vt 0.153333 0.693333
vt 0.153333 0.153333
vt 0.693333 0.153333
vn -1.0000 0.0000 -0.0000
vn 0.7071 0.0000 0.7071
vn 0.0000 0.0000 -1.0000
vn 1.0000 0.0000 0.0000
vn -0.7071 0.7071 0.0000
vn 0.0000 -1.0000 0.0000
vn 0.0000 0.7071 0.7071
vn 0.0000 1.0000 0.0000
vn 0.0000 -0.7071 -0.7071
vn 0.0000 0.0000 1.0000
vn 0.7071 -0.7071 0.0000
vn -0.7071 0.0000 -0.7071
vn 0.7071 0.7071 0.0000
vn -0.7071 -0.7071 0.0000
vn 0.7071 0.0000 -0.7071
vn -0.7071 0.0000 0.7071
vn 0.0000 0.7071 -0.7071
vn 0.0000 -0.7071 0.7071
usemtl 01_-_Default.001
s off
f 28/1/1 53/2/1 70/3/1 69/4/1
f 53/5/2 54/6/2 71/7/2 70/8/2
f 54/9/3 28/10/3 69/11/3 71/12/3
f 40/13/4 47/14/4 73/15/4 72/16/4
f 47/17/5 48/18/5 74/19/5 73/20/5
f 48/21/6 40/22/6 72/23/6 74/24/6
f 37/25/6 43/26/6 76/27/6 75/28/6
f 43/29/7 44/30/7 77/31/7 76/32/7
f 44/33/3 37/34/3 75/35/3 77/36/3
f 38/37/8 46/38/8 79/39/8 78/40/8
f 46/41/9 45/42/9 80/43/9 79/44/9
f 45/45/10 38/46/10 78/47/10 80/48/10
f 39/49/1 49/50/1 82/51/1 81/52/1
f 49/53/11 50/54/11 83/55/11 82/56/11
f 50/57/8 39/58/8 81/59/8 83/60/8
f 27/61/4 52/62/4 85/63/4 84/64/4
f 52/65/12 51/66/12 86/67/12 85/68/12
f 51/69/10 27/70/10 84/71/10 86/72/10
f 42/73/1 56/74/1 88/75/1 87/76/1
f 56/77/13 55/78/13 89/79/13 88/80/13
f 55/81/6 42/82/6 87/83/6 89/84/6
f 41/85/4 58/86/4 91/87/4 90/88/4
f 58/89/14 57/90/14 92/91/14 91/92/14
f 57/93/8 41/94/8 90/95/8 92/96/8
f 25/97/1 60/98/1 94/99/1 93/100/1
f 60/101/15 59/102/15 95/103/15 94/104/15
f 59/105/10 25/106/10 93/107/10 95/108/10
f 26/109/4 62/110/4 97/111/4 96/112/4
f 62/113/16 61/114/16 98/115/16 97/116/16
f 61/117/3 26/118/3 96/119/3 98/120/3
f 63/121/6 65/122/6 100/123/6 99/124/6
f 65/125/17 66/126/17 101/127/17 100/128/17
f 66/129/10 63/130/10 99/131/10 101/132/10
f 64/133/8 67/134/8 103/135/8 102/136/8
f 67/137/18 68/138/18 104/139/18 103/140/18
f 68/141/3 64/142/3 102/143/3 104/144/3
s 1
f 12/145/6 2/146/6 19/147/6 61/148/6
f 71/149/8 69/150/8 70/151/8
f 74/152/10 72/153/10 73/154/10
f 14/155/4 13/156/4 65/157/4 63/158/4
f 58/159/3 24/160/3 55/161/3 57/162/3
f 77/163/1 75/164/1 76/165/1
f 22/166/8 28/167/8 54/168/8 21/169/8
f 31/170/1 37/171/1 44/172/1 32/173/1
f 13/174/8 14/175/8 53/176/8 28/167/8
f 30/177/10 49/178/10 39/179/10 29/180/10
f 32/173/10 47/181/10 40/182/10 31/170/10
f 4/183/6 11/184/6 25/185/6 18/186/6
f 1/187/6 9/188/6 26/189/6 20/190/6
f 7/191/8 15/192/8 27/193/8 24/194/8
f 6/195/8 13/174/8 28/167/8 22/166/8
f 22/196/10 21/197/10 40/182/10 48/198/10
f 20/199/10 19/200/10 39/179/10 50/201/10
f 16/202/1 15/203/1 43/204/1 37/171/1
f 5/205/1 16/202/1 37/171/1 31/170/1
f 3/206/1 10/207/1 38/208/1 35/209/1
f 19/200/10 2/210/10 29/180/10 39/179/10
f 21/197/10 5/205/10 31/170/10 40/182/10
f 17/211/3 3/206/3 35/209/3 41/212/3
f 23/213/3 8/214/3 34/215/3 42/216/3
f 15/203/1 7/217/1 36/218/1 45/219/1
f 35/209/1 38/208/1 45/219/1 36/218/1
f 80/220/1 78/221/1 79/222/1
f 46/223/1 38/208/1 10/207/1 9/224/1
f 83/225/10 81/226/10 82/227/10
f 49/178/10 22/196/10 48/198/10 50/201/10
f 24/194/8 27/193/8 51/228/8 23/229/8
f 86/230/8 84/231/8 85/232/8
f 52/233/8 27/193/8 15/192/8 16/234/8
f 14/175/8 8/235/8 23/229/8 51/228/8
f 24/160/3 23/213/3 42/216/3 55/161/3
f 89/236/3 87/237/3 88/238/3
f 42/216/3 34/215/3 33/239/3 56/240/3
f 18/241/3 17/211/3 41/212/3 57/162/3
f 92/242/3 90/243/3 91/244/3
f 41/212/3 35/209/3 36/218/3 58/159/3
f 18/186/6 25/185/6 59/245/6 17/246/6
f 95/247/6 93/248/6 94/249/6
f 60/250/6 25/185/6 11/184/6 12/145/6
f 20/190/6 26/189/6 61/148/6 19/147/6
f 98/251/6 96/252/6 97/253/6
f 62/254/6 26/189/6 9/188/6 10/255/6
f 33/239/3 4/256/3 18/241/3 56/240/3
f 36/218/3 7/217/3 24/160/3 58/159/3
f 56/240/3 18/241/3 57/162/3 55/161/3
f 45/219/1 46/223/1 43/204/1 15/203/1
f 9/224/1 1/257/1 32/173/1 44/172/1
f 46/223/1 9/224/1 44/172/1 43/204/1
f 47/181/10 20/199/10 50/201/10 48/198/10
f 32/173/10 1/257/10 20/199/10 47/181/10
f 30/177/10 6/258/10 22/196/10 49/178/10
f 34/215/4 8/214/4 14/155/4 63/158/4
f 29/180/4 2/210/4 12/259/4 64/260/4
f 51/228/8 52/233/8 53/176/8 14/175/8
f 16/234/8 5/261/8 21/169/8 54/168/8
f 52/233/8 16/234/8 54/168/8 53/176/8
f 10/255/6 3/262/6 17/246/6 59/245/6
f 62/254/6 10/255/6 59/245/6 60/250/6
f 60/250/6 12/145/6 61/148/6 62/254/6
f 12/259/4 11/263/4 67/264/4 64/260/4
f 66/265/4 33/239/4 34/215/4 63/158/4
f 101/266/4 99/267/4 100/268/4
f 68/269/4 30/177/4 29/180/4 64/260/4
f 104/270/4 102/271/4 103/272/4
f 13/156/4 6/258/4 30/177/4 68/269/4
f 68/269/4 67/264/4 65/157/4 13/156/4
f 11/263/4 4/256/4 33/239/4 66/265/4
f 67/264/4 11/263/4 66/265/4 65/157/4
