# Blender v2.81 (sub 16) OBJ File: ''
# www.blender.org
mtllib terraincube3.mtl
o Cube_Cube.000
v -5.000000 -5.000001 4.999999
v -5.000000 4.999999 5.000001
v -5.000000 5.000001 -4.999999
v -5.000000 -4.999999 -5.000001
v 5.000000 5.000001 -4.999999
v 5.000000 -4.999999 -5.000001
v 5.000000 4.999999 5.000001
v 5.000000 -5.000001 4.999999
vt -0.012923 -0.022820
vt 1.025622 -0.022820
vt 1.025622 1.015724
vt -0.012923 1.015724
vt 1.000000 1.005167
vt 0.000000 1.005167
vt 0.000000 0.005167
vt 1.000000 0.005167
vt 0.999900 0.000100
vt 0.999900 0.999900
vt 0.000100 0.999900
vt 0.000100 0.000100
vt 0.975986 0.973184
vt 0.024014 0.973184
vt 0.024014 0.021213
vt 0.975986 0.021213
vt -0.014988 -0.014614
vt 1.003907 -0.014614
vt 1.003907 1.004281
vt -0.014988 1.004281
vt 0.002809 0.004802
vt 0.995572 0.004802
vt 0.995572 0.997564
vt 0.002809 0.997564
vn -1.0000 -0.0000 0.0000
vn 0.0000 0.0000 -1.0000
vn 1.0000 0.0000 0.0000
vn 0.0000 -0.0000 1.0000
vn 0.0000 -1.0000 -0.0000
vn 0.0000 1.0000 0.0000
usemtl None.001
s 1
f 1/1/1 2/2/1 3/3/1 4/4/1
f 4/5/2 3/6/2 5/7/2 6/8/2
f 6/9/3 5/10/3 7/11/3 8/12/3
f 8/13/4 7/14/4 2/15/4 1/16/4
f 4/17/5 6/18/5 8/19/5 1/20/5
f 5/21/6 3/22/6 2/23/6 7/24/6
